<svg height="96" width="96" xmlns="http://www.w3.org/2000/svg" xmlns:xlink="http://www.w3.org/1999/xlink"><linearGradient id="a"><stop offset="0" stop-color="#fff"/><stop offset="1" stop-color="#fff" stop-opacity="0"/></linearGradient><radialGradient id="b" cx="48" cy="90.171875" gradientTransform="matrix(1.1573129 0 0 .99590774 -7.551021 .197132)" gradientUnits="userSpaceOnUse" r="42" xlink:href="#a"/><linearGradient id="c" gradientTransform="matrix(1.0294118 0 0 -1.0294118 -1.411765 97.411765)" gradientUnits="userSpaceOnUse" x1="43.17857" x2="43.17857" y1="13" y2="83.294571"><stop offset="0" stop-color="#b2b2b2"/><stop offset="1" stop-color="#898989"/></linearGradient><linearGradient id="d" gradientUnits="userSpaceOnUse" x1="36.357143" x2="36.357143" xlink:href="#a" y1="6" y2="63.893143"/><linearGradient id="e" gradientUnits="userSpaceOnUse" x1="48" x2="48" xlink:href="#f" y1="90" y2="5.987717"/><linearGradient id="f"><stop offset="0" stop-color="#656565"/><stop offset="1" stop-color="#dcdcdc"/></linearGradient><linearGradient id="g" gradientTransform="matrix(.68606063 0 0 .68375842 4.242424 5.727247)" gradientUnits="userSpaceOnUse" x1="60.777386" x2="60.777386" y1="115.27915" y2="8.550745"><stop offset="0" stop-color="#232323"/><stop offset="1" stop-color="#4b4b4b"/></linearGradient><clipPath id="h"><rect height="68" rx="3" width="68" x="14" y="14"/></clipPath><linearGradient id="i"><stop offset="0" stop-color="#e3e3e3"/><stop offset="1" stop-color="#939393"/></linearGradient><filter id="j" color-interpolation-filters="sRGB"><feGaussianBlur stdDeviation="1.8596875"/></filter><filter id="k" color-interpolation-filters="sRGB"><feGaussianBlur stdDeviation="1.4521875"/></filter><linearGradient id="l"><stop offset="0" stop-color="#f9f9f9"/><stop offset="1" stop-color="#3c3c3c"/></linearGradient><filter id="m" color-interpolation-filters="sRGB"><feGaussianBlur stdDeviation=".063379309"/></filter><filter id="n" color-interpolation-filters="sRGB"><feGaussianBlur stdDeviation="1.56844"/></filter><radialGradient id="o" cx="48.969208" cy="1.473254" gradientTransform="matrix(.9999932 .00368562 -.00209882 .5694577 .003425 .453412)" gradientUnits="userSpaceOnUse" r="83.476051" xlink:href="#i"/><linearGradient id="p" gradientUnits="userSpaceOnUse" x1="73.194839" x2="49.625214" xlink:href="#f" y1="34.162155" y2="19.183952"/><filter id="q" color-interpolation-filters="sRGB"><feGaussianBlur stdDeviation="1.8909375"/></filter><clipPath id="r"><path d="m81.775868 33.016836-1.698553 4.060937-.488099 2.909037.09754 1.112853-4.392827.566188-.195242-1.073807-1.21047-2.694274-2.694273-3.494749-2.752856.741902-.585712 4.353794.292856 2.948084.370947 1.034757-4.080463 1.698564-.468561-.995709-1.874287-2.284278-3.514259-2.674751-2.459999 1.425232.566189 4.373317 1.034765 2.752847.624758.917615-3.494751 2.694276-.722386-.839521-2.401417-1.737612-4.080448-1.659517-2.010947 2.010945 1.679031 4.060937 1.718091 2.401418.839523.722379-2.694273 3.514273-.898091-.62476-2.772379-1.054282-4.353796-.566188-1.425234 2.479514 2.655227 3.494748 2.303803 1.874279.976197.46857-1.679046 4.080461-1.03475-.370951-2.948084-.292857-4.353795.605237-.741909 2.733323 3.475227 2.694274 2.694273 1.229996 1.093334.195238-.585713 4.373317-1.093333-.07809-2.928561.468569-4.060939 1.698567v2.850464l4.060939 1.698565 2.928561.488094 1.093333-.09763.585713 4.39284-1.093334.195238-2.694273 1.210471-3.475227 2.694276.741909 2.752847 4.353795.585707 2.948084-.292851 1.03475-.370951 1.679046 4.080462-.976197.46857-2.303803 1.87428-2.655227 3.51428 1.425234 2.45998 4.353796-.56618 2.772379-1.03476.898091-.62476 2.694273 3.49475-.839523.72237-1.718091 2.40142-1.679031 4.08046 2.010947 2.01094 4.080448-1.67904 2.401417-1.71808.722386-.83952 3.494751 2.69427-.624758.89809-1.034765 2.77237-.566189 4.35379 2.459999 1.42524 3.514259-2.65523 1.874287-2.3038.468561-.97618 4.080463 1.67904-.370947 1.03475-.292856 2.94809.585712 4.35378 2.752856.74191 2.694273-3.47522 1.21047-2.69428.195242-1.09333 4.392827.58571-.09754 1.09333.488099 2.92856 1.698553 4.06094h2.85047l1.698568-4.06094.468576-2.92856-.07803-1.09333 4.373304-.58571.195242 1.09333 1.229993 2.69428 2.694288 3.47522 2.733318-.74191.605235-4.35378-.292856-2.94809-.370962-1.03475 4.080456-1.67904.46858.97618 1.87427 2.3038 3.49477 2.65523 2.47951-1.42524-.56619-4.35379-1.05429-2.77237-.62476-.89809 3.51427-2.69427.72239.83952 2.40142 1.71808 4.06092 1.67904 2.01096-2.01094-1.65952-4.08046-1.73761-2.40142-.83953-.72237 2.69428-3.49475.91761.62476 2.75286 1.03476 4.3733.56618 1.42524-2.45998-2.67475-3.51428-2.28429-1.87428-.9957-.46857 1.69857-4.080462 1.03476.370951 2.94809.292851 4.35379-.585707.74188-2.752847-3.49473-2.694276-2.69428-1.210471-1.07381-.195238.56619-4.39284 1.11284.09763 2.90906-.488094 4.06094-1.698565v-2.850464l-4.06094-1.698567-2.90906-.468569-1.11284.07809-.56619-4.373317 1.07381-.195238 2.69428-1.229996 3.49473-2.694274-.74188-2.733323-4.35379-.605237-2.94809.292857-1.03476.370951-1.69857-4.080461.9957-.46857 2.28429-1.874279 2.67475-3.494748-1.42524-2.479514-4.3733.566188-2.75286 1.054282-.91761.62476-2.69428-3.514273.83953-.722379 1.7376-2.401418 1.65952-4.060937-2.01095-2.010945-4.06094 1.659517-2.4014 1.737612-.72239.839521-3.51427-2.694276.62476-.917615 1.05429-2.752847.56619-4.373317-2.47953-1.425232-3.49475 2.674751-1.87427 2.284278-.46858.995709-4.080456-1.698564.370962-1.034757.292856-2.948084-.605249-4.353794-2.733304-.741902-2.694288 3.494749-1.229993 2.694274-.195242 1.073807-4.373304-.566188.07803-1.112853-.468576-2.909037-1.698568-4.060937zm1.425235 14.916135c4.750977 0 9.282836.915519 13.451857 2.557608l-7.946159 15.404228c-1.749348-.512444-3.59136-.800473-5.505698-.800473-3.795817 0-7.34471 1.097152-10.347576 2.967607l-11.792335-12.709951c6.162484-4.653279 13.829225-7.419019 22.139911-7.419019zm20.109457 6.013309c10.02308 6.567441 16.65374 17.876539 16.65374 30.749883 0 .961414-.0447 1.907509-.1172 2.850466l-17.04416-3.084749c-.07308-6.123445-2.973068-11.565752-7.438555-15.111373zm-47.755065 6.501404 11.792334 12.709953c-2.365792 3.238888-3.748546 7.223374-3.748546 11.538526 0 1.593022.187454 3.144009.546652 4.627126l-15.75566 7.223781c-1.269446-3.722349-1.971887-7.701628-1.971887-11.850907 0-9.287001 3.449052-17.776076 9.137107-24.248479zm45.900295 31.374644 17.06376 3.104274c-3.64624 12.612618-13.8725 22.447098-26.708484 25.537038l-2.323311-17.2004c5.478983-1.8582 9.870965-6.076523 11.968055-11.440912zm-34.186052 4.314745c3.350419 4.653757 8.698915 7.770707 14.779464 8.121867l2.323326 17.20041c-.389364.0122-.779091.0196-1.171425.0196-13.489301 0-25.285027-7.27633-31.687025-18.11802l15.75566-7.223787z"/></clipPath><clipPath id="s"><path d="m81.882329 32.767073-1.713399 4.09643-.492364 2.934461.09839 1.12258-4.431221.571136-.196948-1.083191-1.22105-2.717823-2.717821-3.525293-2.776916.748386-.590831 4.391847.295416 2.97385.374189 1.043801-4.116126 1.71341-.472656-1.004412-1.890669-2.304242-3.544973-2.698129-2.481501 1.437688.571138 4.41154 1.043809 2.776907.630218.925635-3.525294 2.717824-.7287-.846858-2.422406-1.752799-4.116111-1.674021-2.028522 2.028521 1.693705 4.096429 1.733107 2.422407.846861.728693-2.717822 3.544988-.90594-.630221-2.796609-1.063497-4.391848-.571136-1.437692 2.501185 2.678434 3.525293 2.323939 1.89066.984729.472665-1.693721 4.116124-1.043794-.374193-2.97385-.295416-4.391848.610526-.748393 2.757212 3.505601 2.717823 2.717821 1.240746 1.102889.196944-.590831 4.41154-1.102889-.07877-2.954157.472665-4.096432 1.713413v2.875377l4.096432 1.713411 2.954157.49236 1.102889-.09848.590831 4.431233-1.102889.196944-2.717821 1.221051-3.505601 2.717824.748393 2.776908 4.391848.590831 2.97385-.29541 1.043794-.374199 1.693721 4.116129-.984729.47267-2.323939 1.89065-2.678434 3.545 1.437692 2.48148 4.391848-.57113 2.796609-1.0438.90594-.63022 2.717822 3.52529-.846861.72869-1.733107 2.4224-1.693705 4.11613 2.028522 2.02852 4.116111-1.69372 2.422406-1.7331.7287-.84686 3.525294 2.71782-.630218.90594-1.043809 2.7966-.571138 4.39185 2.481501 1.43769 3.544973-2.67843 1.890669-2.32394.472656-.98471 4.116126 1.69371-.374189 1.0438-.295416 2.97385.590831 4.39184 2.776916.74839 2.717821-3.50559 1.22105-2.71783.196948-1.10289 4.431221.59083-.09839 1.10289.492364 2.95415 1.713399 4.09643h2.875383l1.713414-4.09643.472671-2.95415-.07872-1.10289 4.411527-.59083.196949 1.10289 1.240742 2.71783 2.717836 3.50559 2.757208-.74839.610525-4.39184-.295416-2.97385-.374204-1.0438 4.116116-1.69371.47268.98471 1.89065 2.32394 3.52531 2.67843 2.50118-1.43769-.57114-4.39185-1.0635-2.7966-.63021-.90594 3.54498-2.71782.72871.84686 2.42239 1.7331 4.09642 1.69372 2.02854-2.02852-1.67403-4.11613-1.75279-2.4224-.84687-.72869 2.71783-3.52529.92564.63022 2.77691 1.0438 4.41153.57113 1.43768-2.48148-2.69813-3.545-2.30424-1.89065-1.00441-.47267 1.71341-4.116129 1.04381.374199 2.97385.29541 4.39185-.590831.74836-2.776908-3.52528-2.717824-2.71782-1.221051-1.08319-.196944.57114-4.431233 1.12256.09848 2.93448-.49236 4.09643-1.713411v-2.875377l-4.09643-1.713413-2.93448-.472665-1.12256.07877-.57114-4.41154 1.08319-.196944 2.71782-1.240746 3.52528-2.717823-.74836-2.757212-4.39185-.610526-2.97385.295416-1.04381.374193-1.71341-4.116124 1.00441-.472665 2.30424-1.89066 2.69813-3.525293-1.43769-2.501185-4.41153.571136-2.77691 1.063497-.92564.630221-2.71782-3.544988.84686-.728693 1.75279-2.422407 1.67402-4.096429-2.02852-2.028521-4.09643 1.674021-2.42239 1.752799-.7287.846858-3.54499-2.717824.63022-.925635 1.0635-2.776907.57114-4.41154-2.5012-1.437688-3.52529 2.698129-1.89065 2.304242-.47268 1.004412-4.116116-1.71341.374204-1.043801.295416-2.97385-.61054-4.391847-2.757193-.748386-2.717836 3.525293-1.240742 2.717823-.196949 1.083191-4.411527-.571136.07872-1.12258-.472671-2.934461-1.713414-4.09643zm1.437692 15.046502c4.792501 0 9.363968.923521 13.569427 2.579962l-8.01561 15.538862c-1.764637-.516923-3.622748-.807469-5.553817-.807469-3.828993 0-7.408903 1.106741-10.438015 2.993543l-11.8954-12.821036c6.216344-4.693949 13.950092-7.483862 22.333415-7.483862zm20.285209 6.065866c10.11069 6.62484 16.7993 18.032781 16.7993 31.018638 0 .969817-.0451 1.92418-.11822 2.875379l-17.19313-3.11171c-.0737-6.176964-2.99905-11.666837-7.50357-15.243446zm-48.172441 6.558226 11.8954 12.821038c-2.38647 3.267197-3.781309 7.286508-3.781309 11.639374 0 1.606945.189092 3.171488.55143 4.667568l-15.893365 7.286917c-1.280541-3.754884-1.989122-7.768941-1.989122-11.954485 0-9.36817 3.479197-17.931439 9.216966-24.460412zm46.301471 31.64886 17.21289 3.131405c-3.67811 12.722858-13.99375 22.643288-26.941915 25.760238l-2.343617-17.35074c5.526869-1.87444 9.957238-6.129629 12.072652-11.540903zm-34.484845 4.352456c3.379701 4.694427 8.774943 7.838617 14.908637 8.192857l2.343631 17.35074c-.392766.0123-.7859.0198-1.181662.0198-13.607198 0-25.50602-7.33993-31.963971-18.27637l15.893365-7.286927z"/></clipPath><filter id="t" color-interpolation-filters="sRGB"><feGaussianBlur stdDeviation="1.8975"/></filter><filter id="u" color-interpolation-filters="sRGB"><feGaussianBlur stdDeviation="1.439999"/></filter><radialGradient id="v" cx="56.055019" cy="55.978848" gradientTransform="matrix(.62429531 -.62429531 .39740012 .39740012 57.190344 56.707013)" gradientUnits="userSpaceOnUse" r="52.251602" xlink:href="#i"/><linearGradient id="w" gradientUnits="userSpaceOnUse" x1="110.79857706113" x2="154.07548626862" y1="34.53243120524" y2="95.09258840086"><stop offset="0" stop-color="#e8e8e8"/><stop offset="1" stop-color="#828282"/></linearGradient><linearGradient id="x" gradientUnits="userSpaceOnUse" x1="80.875443" x2="82.573708" xlink:href="#l" y1="82.61515" y2="84.937546"/><linearGradient id="y" gradientUnits="userSpaceOnUse" x1="82.312332" x2="81.312866" xlink:href="#l" y1="85.362457" y2="82.651672"/><clipPath id="z"><rect height="68" rx="3" width="68" x="84" y="14"/></clipPath><clipPath id="A"><rect height="68" rx="3" width="68" x="-36" y="14"/></clipPath><filter id="B" color-interpolation-filters="sRGB" height="1.336" width="1.336" x="-.168" y="-.168"><feGaussianBlur stdDeviation="5.04"/></filter><linearGradient id="C" gradientTransform="matrix(1.0058652 0 0 .994169 100 0)" gradientUnits="userSpaceOnUse" x1="45.447727" x2="45.447727" y1="92.539597" y2="7.01654"><stop offset="0"/><stop offset="1" stop-opacity=".588235"/></linearGradient><linearGradient id="D" gradientTransform="matrix(1.0238095 0 0 1.0119048 -1.142857 -98.071429)" gradientUnits="userSpaceOnUse" x1="32.251034" x2="32.251034" xlink:href="#C" y1="6.131708" y2="90.238609"/><linearGradient id="E" gradientTransform="translate(0 -97)" gradientUnits="userSpaceOnUse" x1="32.251034" x2="32.251034" xlink:href="#C" y1="6.131708" y2="90.238609"/><g><g fill="url(#D)"><path d="m12-95.03125c-5.5110903 0-10.03125 4.52016-10.03125 10.03125v71c0 5.5110902 4.5201598 10.03125 10.03125 10.03125h72c5.51109 0 10.03125-4.5201597 10.03125-10.03125v-71c0-5.51109-4.52016-10.03125-10.03125-10.03125z" opacity=".08" transform="scale(1 -1)"/><path d="m12-94.03125c-4.971633 0-9.03125 4.059617-9.03125 9.03125v71c0 4.9716329 4.0596171 9.03125 9.03125 9.03125h72c4.971633 0 9.03125-4.059617 9.03125-9.03125v-71c0-4.971633-4.059617-9.03125-9.03125-9.03125z" opacity=".1" transform="scale(1 -1)"/><path d="m12-93c-4.4091333 0-8 3.590867-8 8v71c0 4.4091333 3.5908667 8 8 8h72c4.409133 0 8-3.5908667 8-8v-71c0-4.409133-3.590867-8-8-8z" opacity=".2" transform="scale(1 -1)"/><rect height="85" opacity=".3" rx="7" transform="scale(1 -1)" width="86" x="5" y="-92"/></g><rect fill="url(#E)" height="84" opacity=".45" rx="6" transform="scale(1 -1)" width="84" x="6" y="-91"/></g><g><rect fill="url(#g)" fill-rule="evenodd" height="72" rx="7.546667" ry="7.521343" width="72" x="12" y="14"/><g clip-path="url(#z)" transform="translate(-69 1)"><path d="m131.78125 29.59375-.125.3125-1.15625 2.78125-.0312.0625v.03125l-.34375 2v.0625.0625l.0312.3125-2.09375.25-.0312-.25v-.0625l-.0313-.0625-.84375-1.84375-.03125-.0625-.03125-.0625-1.84375-2.375-.1875-.28125-.34375.09375-1.875.5-.34375.09375-.0312.34375-.40625 2.96875v.0625.0625l.21875 2.03125v.0625.0625l.0937.25-1.90625.78125-.125-.21875-.03125-.0625-.03125-.0625-1.28125-1.5625-.0312-.03125-.0625-.0625-2.40625-1.8125-.28125-.21875-.28125.15625-1.6875 1-.28125.15625.0312.34375.40625 3v.0625l.0312.03125.6875 1.90625.0312.0625.0312.03125.15625.25-1.65625 1.28125-.1875-.21875-.0312-.0625-.0312-.03125-1.65625-1.1875-.0625-.03125-.0312-.03125-2.8125-1.125-.3125-.125-.21875.21875-1.40625 1.375-.21875.25.125.3125 1.15625 2.78125.0312.0625.0312.03125 1.15625 1.65625.0312.0625.0625.03125.21875.1875-1.28125 1.65625-.21875-.15625-.0625-.03125-.0312-.03125-1.90625-.71875-.0625-.03125h-.0625l-3-.375-.3125-.0625-.1875.3125-.96875 1.6875-.15625.28125.1875.28125 1.8125 2.40625.0625.03125.0312.03125 1.59375 1.3125.0312.03125.0625.03125.25.125-.78125 1.90625-.28125-.09375-.0625-.03125h-.0625l-2.03125-.1875-.0312-.03125-.06235.03125-3 .40625-.3125.03125-.0937.34375-.53125 1.875-.0625.3125.25.21875 2.375 1.84375.0625.03125.0625.03125 1.84375.84375.0625.03125h.0625l.28125.03125-.28125 2.09375-.28125-.03125h-.0625-.0625l-2 .3125-.0625.03125h-.0625l-2.78125 1.1875-.3125.125v.3125 1.96875.34375l.3125.125 2.78125 1.15625.0625.03125h.0625l2 .34375h.0625.0625l.28125-.03125.2812 2.09375-.28125.03125h-.0625l-.0625.03125-1.84375.84375-.0625.03125-.0625.03125-2.375 1.84375-.25.21875.0625.3125.53125 1.875.0937.34375.3125.03125 3 .40625h.0625.0312l2.03125-.1875.0625-.03125h.0625l.28125-.09375.78125 1.90625-.25.125-.0624.03125-.0312.03125-1.59375 1.28125-.0312.0625-.0625.03125-1.8125 2.40625-.1875.28125.15625.28125.96875 1.6875.1875.28125.3125-.03125 3-.40625h.0625.0312l1.90625-.71875.0625-.03125.06245-.03125.21875-.15625 1.28125 1.65625-.21875.1875-.0625.03125-.03125.03125-1.15625 1.65625-.0625.0625v.03125l-1.15625 2.8125-.125.3125.21875.25 1.40625 1.375.21875.21875.3125-.125 2.8125-1.15625h.0312l.0625-.03125 1.65625-1.1875.0312-.03125.0312-.0625.1875-.21875 1.65625 1.28125-.15625.21875-.0312.0625-.0312.0625-.6875 1.90625-.0312.03125v.0625l-.40625 3-.0312.3125.28125.1875 1.6875.96875.28125.15625.28125-.1875 2.40625-1.8125.0625-.03125.0312-.0625 1.28125-1.59375.0312-.03125.0312-.0625.125-.21875 1.90625.78125-.0937.25v.0625.0625l-.21875 2.03125v.0625.03125l.40625 3 .0312.34375.34375.0625 1.875.53125.34375.0625.1875-.25 1.84375-2.375.03135-.0625.03125-.0625.84375-1.84375.0312-.0625v-.0625l.0312-.28125 2.09375.28125-.0312.28125v.0625.0625l.34375 2.03125v.03125l.0312.0625 1.15625 2.78125.125.3125h.34375 1.96875.3125l.125-.3125 1.1875-2.78125.0312-.0625v-.0625l.3125-2v-.0625-.0625-.28125l2.0625-.28125.0312.28125.0312.0625v.0625l.84375 1.875.0312.03125.0312.0625 1.875 2.375.1875.28125.3125-.0937 1.90625-.53125.3125-.0625.0312-.34375.4375-3v-.03125-.0625l-.21875-2.03125v-.0625l-.0312-.0625-.0937-.25 1.9375-.78125.125.21875v.0625l.0625.03125 1.28125 1.59375.0312.03125.0625.0625 2.375 1.8125.28125.1875.28125-.15625 1.71875-.96875.28125-.1875-.0625-.3125-.375-3v-.0625l-.0312-.03125-.71875-1.90625-.0312-.0625-.031-.0625-.15625-.21875 1.65625-1.28125.1875.21875.0312.0625.0625.03125 1.65625 1.1875.0312.03125h.0625l2.78125 1.15625.3125.125.25-.21875 1.375-1.375.21875-.25-.125-.3125-1.125-2.78125-.0312-.0625-.0312-.0625-1.1875-1.6563-.0312-.03125-.06255-.03125-.21875-.1875 1.28125-1.65625.25.15625.0312.03125.0625.03125 1.90625.71875h.0312.0625l3 .40625.34375.03125.15625-.28125 1-1.6875.15625-.28125-.1874-.28125-1.84375-2.40625-.03125-.03125-.0625-.0625-1.5625-1.28125-.0625-.03125-.0312-.03125-.25-.125.78125-1.90625.28125.09375h.0312l.0625.03125 2.03125.1875h.0625.0625l3-.40625.3125-.03125.0937-.34375.5-1.875.0937-.3125-.25-.21875-2.40625-1.84375-.0625-.03125-.0312-.03125-1.875-.84375h-.0312l-.0625-.03125-.28125-.0625.25-2.0625.3125.03125h.0625.0625l2-.34375h.0312l.0625-.03125 2.78125-1.15625.3125-.125v-.34375-1.96875-.3125l-.3125-.125-2.78125-1.1875h-.0625l-.0312-.03125-2-.3125h-.0625-.0625l-.3125.03125-.25-2.0625.28125-.0625h.0625l.0312-.03125 1.875-.84375.0312-.03125.0625-.03125 2.40625-1.84375.25-.21875-.0937-.3125-.5-1.875-.0937-.34375-.3125-.03125-3-.40625-.0625-.03125-.0625.03125-2.03125.1875h-.0625l-.0312.03125-.28125.09375-.78125-1.90625.25-.125.0312-.03125.0625-.0625 1.5625-1.28125.0625-.03125.0312-.03125 1.8438-2.40625.1875-.28125-.15625-.28125-1-1.6875-.15625-.3125-.34375.0625-3 .375h-.0625l-.0312.03125-1.90625.71875-.0625.03125-.0312.03125-.25.15625-1.28135-1.65625.21875-.1875.0625-.03125.0312-.0625 1.1875-1.65625.0312-.03125.0312-.0625 1.125-2.78125.125-.3125-.21875-.25-1.375-1.375-.25-.21875-.3125.125-2.78125 1.125-.0625.03125-.0312.03125-1.65625 1.1875-.0625.03125-.0312.0625-.18745.21875-1.65625-1.28125.15625-.25.0312-.03125.0312-.0625.71875-1.875.0312-.0625v-.0625l.375-3 .0625-.34375-.28125-.15625-1.71875-1-.28125-.15625-.28125.21875-2.375 1.8125-.0625.0625-.0312.03125-1.28125 1.5625-.0625.0625v.0625l-.125.21875-1.9374-.78125.0937-.25.0312-.0625v-.0625l.21875-2.03125v-.0625-.0625l-.4375-3-.0312-.3125-.3125-.09375-1.90625-.5-.3125-.09375-.1875.28125-1.875 2.375-.0312.0625-.0312.0625-.84375 1.84375v.0625l-.0312.0625-.0312.25-2.0625-.25v-.3125-.0625-.03125l-.3125-2v-.0625l-.0312-.0625-1.1875-2.78125-.125-.3125h-.3125-1.96875-.34375zm1.3125 11.25c3.00487 0 5.8668.5801 8.53125 1.5625l-5.03125 9.71875c-1.11926-.29204-2.28659-.5-3.5-.5-2.5358 0-4.88718.75317-6.9375 1.9375l-7.5-8.03125c4.07027-2.93291 9.04019-4.6875 14.4375-4.6875zm14 4.40625c6.47931 4.46428 10.75 11.88069 10.75 20.34375 0 .46501-.004.91495-.0312 1.375l-10.81255-1.96875c-.16937-4.04662-2.03399-7.61974-4.9375-10.0625zm-32.9375 4.46875 7.46875 8.03125c-1.53748 2.24382-2.5 4.92291-2.5 7.84375 0 .99261.1463 1.93879.34375 2.875l-9.9375 4.5625c-.74755-2.3574-1.1875-4.83468-1.1875-7.4375 0-6.04788 2.20702-11.5753 5.8125-15.875zm31.75 21.3125 10.75 1.9375c-2.52971 8.0632-9.03636 14.32893-17.25 16.5l-1.4375-10.8125c3.5908-1.3384 6.44104-4.11452 7.9375-7.625zm-23.875 3.03125c2.31811 3.02269 5.83523 5.05478 9.84375 5.40625l1.46875 10.875c-.0809.00092-.16914 0-.25 0-8.87641 0-16.59545-4.6966-20.96875-11.71875z" filter="url(#u)"/><path d="m132.12562 28.089748-1.16672 2.789418-.33527 1.998189.067.764408-3.01739.388909-.13411-.737587-.83146-1.850671-1.85067-2.400509-1.89091.509605-.40232 2.990579.20116 2.02501.2548.710765-2.80283 1.166727-.32185-.683943-1.28743-1.569048-2.41391-1.837261-1.68975.978978.38891 3.003989.71077 1.890904.42914.630301-2.40051 1.850672-.4962-.576659-1.64951-1.193549-2.80282-1.139906-1.3813 1.381299 1.15331 2.789418 1.18014 1.649511.57666.496195-1.85067 2.41392-.61689-.429142-1.90432-.724176-2.99058-.388909-.97898 1.703154 1.82385 2.400509 1.58246 1.287424.67054.321856-1.15332 2.802829-.71076-.254803-2.02501-.20116-2.990581.415731-.509606 1.877493 2.387097 1.850671 1.85067.844872.751.134107-.40232 3.003989-.751-.05364-2.0116.321856-2.789416 1.166729v1.957956l2.789416 1.166728 2.0116.335267.751-.06706.40232 3.017399-.751.134107-1.85067.831461-2.387097 1.850672.509606 1.890904 2.990581.402319 2.02501-.201159.71076-.254803 1.15332 2.802829-.67054.321858-1.58246 1.287421-1.82385 2.413924.97898 1.68974 2.99058-.388907 1.90432-.710766.61689-.429137 1.85067 2.400505-.57666.496193-1.18014 1.649509-1.15331 2.802832 1.3813 1.381294 2.80282-1.153316 1.64951-1.180134.4962-.576661 2.40051 1.850669-.42914.616892-.71077 1.904312-.38891 2.990579 1.68975.978981 2.41391-1.823851 1.28743-1.58246.32185-.670528 2.80283 1.153316-.2548.710765-.20116 2.025011.40232 2.990572 1.89091.509606 1.85067-2.387093.83146-1.850676.13411-.750996 3.01739.40232-.067.750996.33527 2.011598 1.16672 2.78942h1.95796l1.16673-2.78942.32186-2.011598-.0536-.750996 3.00398-.40232.13411.750996.84487 1.850676 1.85068 2.387093 1.87749-.509606.41573-2.990572-.20116-2.025011-.25481-.710765 2.80283-1.153316.32186.670528 1.28742 1.58246 2.40052 1.823851 1.70315-.978981-.38891-2.990579-.72418-1.904312-.42914-.616892 2.41392-1.850669.4962.576661 1.64951 1.180134 2.78941 1.153316 1.38131-1.381294-1.13991-2.802832-1.19355-1.649509-.57666-.496193 1.85067-2.400505.6303.429137 1.89091.710766 3.00398.388907.97898-1.68974-1.83726-2.413924-1.56905-1.287421-.68394-.321858 1.16673-2.802829.71077.254803 2.02501.201159 2.99058-.402319.50959-1.890904-2.4005-1.850672-1.85067-.831461-.73759-.134107.38891-3.017399.7644.06706 1.9982-.335267 2.78942-1.166728v-1.957956l-2.78942-1.166729-1.9982-.321856-.7644.05364-.38891-3.003989.73759-.134107 1.85067-.844872 2.4005-1.850671-.50959-1.877493-2.99058-.415731-2.02501.20116-.71077.254803-1.16673-2.802829.68394-.321856 1.56905-1.287424 1.83726-2.400509-.97898-1.703154-3.00398.388909-1.89091.724176-.6303.429142-1.85067-2.41392.57666-.496195 1.19354-1.649511 1.13991-2.789418-1.3813-1.381299-2.78942 1.139906-1.6495 1.193549-.4962.576659-2.41392-1.850672.42914-.630301.72418-1.890904.38891-3.003989-1.70316-.978978-2.40051 1.837261-1.28742 1.569048-.32186.683943-2.80283-1.166727.25481-.710765.20116-2.02501-.41574-2.990579-1.87748-.509605-1.85068 2.400509-.84487 1.850671-.13411.737587-3.00398-.388909.0536-.764408-.32186-1.998189-1.16673-2.789418zm.97898 10.245748c3.2634 0 6.37629.628861 9.23995 1.756796l-5.45814 10.581015c-1.20161-.351993-2.46687-.549837-3.78181-.549837-2.60731 0-5.04501.753623-7.10765 2.03842l-8.10004-8.730342c4.23295-3.196292 9.49916-5.096052 15.20769-5.096052zm13.81299 4.130484c6.88476 4.511111 11.43929 12.279221 11.43929 21.121796 0 .660386-.0307 1.310249-.0805 1.957957l-11.70747-2.118884c-.0502-4.206135-2.04217-7.944403-5.10947-10.379855zm-32.80249 4.465751 8.10004 8.730343c-1.62504 2.224761-2.57484 4.961666-2.57484 7.925702 0 1.094231.12876 2.159589.37549 3.178328l-10.82241 4.961945c-.87197-2.556846-1.35447-5.290174-1.35447-8.140273 0-6.379151 2.36912-12.210214 6.27619-16.656045zm31.52847 21.550938 11.72093 2.132296c-2.50457 8.663488-9.52889 15.418694-18.3458 17.541146l-1.59586-11.814793c3.76346-1.276375 6.78027-4.173902 8.22074-7.858649zm-23.48207 2.963757c2.30137 3.196617 5.9752 5.33762 10.15187 5.578832l1.59587 11.814794c-.26745.0084-.53515.01345-.80464.01345-9.26567 0-17.36804-4.998041-21.76551-12.445091l10.82241-4.961951z" fill="url(#v)" stroke="url(#w)"/><g stroke-linejoin="round"><path d="m83.038866 84.007065a1.2367492 1.2367492 0 1 1 -2.473499 0 1.2367492 1.2367492 0 1 1 2.473499 0z" fill="#b8b8b8" stroke="url(#x)" stroke-width=".452342" transform="matrix(2.2107174 0 0 2.2107174 -47.74347 -122.1214)"/><path d="m83.038866 84.007065a1.2367492 1.2367492 0 1 1 -2.473499 0 1.2367492 1.2367492 0 1 1 2.473499 0z" fill="none" filter="url(#m)" stroke="#fff" stroke-width=".089896" transform="matrix(22.247964 0 0 22.247964 -1686.8327 -1805.3916)"/><path d="m83.038866 84.007065a1.2367492 1.2367492 0 1 1 -2.473499 0 1.2367492 1.2367492 0 1 1 2.473499 0z" fill="none" stroke="url(#y)" stroke-width=".345871" transform="matrix(5.7825105 0 0 5.7825105 -339.9237 -422.17725)"/></g><path clip-path="url(#r)" d="m108 40.53125-2.625 2-.0312.0625-1.03125 1.25-19.28125 39.96875 44.5625 11.21875-.0937-.0625-2.3125-1.03125h-.0625l-1.03125-.21875a1.235193 1.235193 0 0 1 -.96875-1.375l.59375-4.375a1.235193 1.235193 0 0 1 1.3125-1.0625l.875.0625 2.78125-.46875h.0312l3.03125-1.28125v-1.25l-3.09375-1.28125-2.75-.46875h-.0625l-.8438.0625a1.235193 1.235193 0 0 1 -1.28125-1.0625l-.59375-4.375a1.235193 1.235193 0 0 1 1-1.375l.96875-.15625 2.40625-1.09375 2.71875-2.125-.3125-1.15625-3.4375-.46875-2.59375.25-.90625.34375a1.235193 1.235193 0 0 1 -1.59375-.6875l-1.6875-4.09375a1.235193 1.235193 0 0 1 .625-1.59375l.875-.40625 2.09375-1.75.0625-.03125 2-2.625-.625-1.09375-3.375.4375-2.5.96875-.84375.5625a1.235193 1.235193 0 0 1 -1.65625-.28125l-2.6875-3.5a1.235193 1.235193 0 0 1 .15625-1.6875l.75-.65625 1.46875-2 .0312-.0625 1.34375-3.28125-.84375-.8125-3.21875 1.3125-.0937.03125-2 1.46875-.65625.78125a1.235193 1.235193 0 0 1 -1.6875.15625l-3.53125-2.71875a1.235193 1.235193 0 0 1 -.28125-1.65625l.5625-.8125.96875-2.5.4375-3.375zm-4.59375 12.03125a1.235193 1.235193 0 0 1 .6875.21875c10.36931 6.794292 17.25 18.498619 17.25 31.8125 0 1.007384-.0823 1.976373-.15625 2.9375a1.235193 1.235193 0 0 1 -1.4375 1.125l-17.0625-3.09375a1.235193 1.235193 0 0 1 -1.03125-1.21875c-.0685-5.746838-2.80529-10.825619-7-14.15625a1.235193 1.235193 0 0 1 -.3125-1.53125l7.96875-15.40625a1.235193 1.235193 0 0 1 1.09375-.6875zm-66.46875 21.59375.09375.0625 2.40625 1.09375.96875.15625a1.235193 1.235193 0 0 1 1 1.375l-.59375 4.375a1.235193 1.235193 0 0 1 -1.28125 1.0625l-.84375-.0625h-.0625l-2.78125.46875-3.09375 1.28125v1.25l3.03125 1.28125h.03125l2.8125.46875.875-.0625a1.235193 1.235193 0 0 1 1.3125 1.0625l.59375 4.375a1.235193 1.235193 0 0 1 -.96875 1.375l-1.03125.21875h-.0625l-2.3125 1.03125-2.71875 2.125.3125 1.1875 3.4375.4375 2.59375-.25.90625-.34375a1.235193 1.235193 0 0 1 1.59375.6875l1.6875 4.09375a1.235193 1.235193 0 0 1 -.625 1.59375l-.8125.40625-2.09375 1.65625-2.0625 2.78125.59375 1.03125 3.34375-.4375 2.53125-.9375.8125-.5625a1.235193 1.235193 0 0 1 1.65625.28125l2.6875 3.5a1.235193 1.235193 0 0 1 -.15625 1.6875l-.75.65625-1.46875 2-.03125.0625-1.34375 3.28125.84375.8125 3.25-1.3125.0625-.0312 2-1.46875.65625-.75a1.235193 1.235193 0 0 1 1.6875-.1563l3.5 2.6875a1.235193 1.235193 0 0 1 .28125 1.65625l-.5625.8125-.9375 2.53125-.4375 3.34375 1.0625.59375 2.78125-2.0625.84375-1.0625 3.5-7.28125c-6.271314-3.29586-11.558702-8.2201-15.15625-14.3125a1.235193 1.235193 0 0 1 .53125-1.75l15.75-7.25a1.235193 1.235193 0 0 1 1.53125.40625c1.54437 2.145136 3.619439 3.843357 5.9375 5.15625l7.25-15.0625-16.21875-4.09375c-.196357 1.076287-.375 2.141849-.375 3.28125 0 1.506354.134098 2.961972.46875 4.34375a1.235193 1.235193 0 0 1 -.6875 1.40625l-15.78125 7.25a1.235193 1.235193 0 0 1 -1.65625-.71875c-1.313415-3.851282-2.0625-7.988656-2.0625-12.28125 0-2.795298.394406-5.50195.96875-8.125z" filter="url(#q)" opacity=".15" transform="matrix(.68689029 0 0 .68689029 75.95457 5.410804)"/><path clip-path="url(#s)" d="m82.5625 33.9375-1.375 3.28125-.4375 2.5v.0625l.09375 1.0625a1.0934898 1.0934898 0 0 1 -.96875 1.1875l-4.40625.5625a1.0934898 1.0934898 0 0 1 -1.1875-.90625l-.125-.8125-.03125-.0625-1.125-2.5-2.1875-2.8125-1.3125.34375-.5 3.5625.28125 2.625.3125.90625a1.0934898 1.0934898 0 0 1 -.59375 1.375l-4.0625 1.71875a1.0934898 1.0934898 0 0 1 -1.4375-.53125l-.4375-.9375-.03125-.0625-1.625-1.9375-2.875-2.1875-1.1875.6875.4375 3.5625.9375 2.46875.5625.8125a1.0934898 1.0934898 0 0 1 -.25 1.5l-3.5 2.71875a1.0934898 1.0934898 0 0 1 -1.5-.15625l-.6875-.78125-.03125-.0625-2.15625-1.53125-3.1875-1.3125-1.03125 1 1.375 3.3125 1.46875 2.0625.84375.71875a1.0934898 1.0934898 0 0 1 .15625 1.5l-2.6875 3.5a1.0934898 1.0934898 0 0 1 -1.5.25l-.8125-.5625-2.5-.96875-3.53125-.4375-.6875 1.21875 2.15625 2.84375 1.0625.875.0625.03125 7.3125 3.53125c1.417358-2.71991 3.120343-5.281411 5.125-7.5625a1.0934898 1.0934898 0 0 1 1.625-.03125l11.8125 12.71875a1.0934898 1.0934898 0 0 1 .0625 1.40625c-.437189.598532-.762117 1.254298-1.125 1.90625l15.40625 7.4375 4.15625-16.53125c-1.128843-.223383-2.251864-.4375-3.4375-.4375-3.590188.000002-6.97302 1.043818-9.8125 2.8125a1.0934898 1.0934898 0 0 1 -1.375-.1875l-11.8125-12.71875a1.0934898 1.0934898 0 0 1 .15625-1.625c6.352073-4.796435 14.279607-7.65625 22.84375-7.65625 2.819095.000001 5.547887.380143 8.1875.96875l2.5-9.90625-.4375.5625-1.125 2.5-.03125.0625-.15625.84375a1.0934898 1.0934898 0 0 1 -1.1875.875l-4.375-.5625a1.0934898 1.0934898 0 0 1 -.96875-1.1875l.09375-.9375-.46875-2.78125v-.03125l-1.34375-3.15625zm1.40625 52.25-4.15625 16.53125c.790623.16027 1.570607.32855 2.375.375a1.0934898 1.0934898 0 0 1 1.03125.9375l2.3125 17.21875a1.0934898 1.0934898 0 0 1 -1.0625 1.25c-.434591.0136-.817403 0-1.1875 0-2.826956 0-5.569712-.37984-8.21875-.96875l-2.5 9.9375.4375-.5625 1.125-2.5.15625-.90625a1.0934898 1.0934898 0 0 1 1.1875-.90625l4.40625.5625a1.0934898 1.0934898 0 0 1 .96875 1.1875l-.09375 1.03125v.0625l.4375 2.53125 1.375 3.28125h1.40625l1.34375-3.15625v-.0312l.4375-2.8125-.0625-.90625a1.0934898 1.0934898 0 0 1 .96875-1.1875l4.375-.5625a1.0934898 1.0934898 0 0 1 1.1875.875l.15625.875.03125.0625 1.125 2.5 2.15625 2.78125 1.34375-.375.5-3.53125-.28125-2.625-.3125-.9375a1.0934898 1.0934898 0 0 1 .625-1.375l4.09375-1.65625a1.0934898 1.0934898 0 0 1 1.375.53125l.34375.75.0625.0625 1.71875 2.125 2.84375 2.15625 1.1875-.6875-.4375-3.53125-.96875-2.5-.5625-.8125a1.0934898 1.0934898 0 0 1 .25-1.5l3.53125-2.68755a1.0934898 1.0934898 0 0 1 1.5.15625l.71875.84375 2.0625 1.46875 3.28125 1.34375 1.03125-1-1.375-3.3125-1.46875-2.0625-.84375-.71875a1.0934898 1.0934898 0 0 1 -.15625-1.5l2.6875-3.5a1.0934898 1.0934898 0 0 1 1.46875-.25l.71875.5.0625.0312 2.46875.9375h.0937l3.5625.5.6875-1.1875-2.1875-2.875-.96875-.84375-.0625-.0312-7.5-3.59375c-4.99661 9.59978-13.85116 16.87521-24.625 19.46875a1.0934898 1.0934898 0 0 1 -1.3437-.90625l-2.34375-17.21875a1.0934898 1.0934898 0 0 1 .75-1.1875c4.362617-1.47958 7.933576-4.599075 10.15625-8.5625z" fill="#fff" filter="url(#t)" opacity=".5" transform="matrix(.68093886 0 0 .68093886 76.36876 5.777375)"/></g><g clip-path="url(#A)" transform="translate(50)"><path d="m-35.40625-27.28125-.3125.03125-.125.28125-1.28125 3.03125v.0625l-.0312.0625-.34375 2.1875v.0625.0625l.0312.34375-2.34375.3125-.0625-.34375v-.0625l-.0312-.0625-.9375-2v-.0625l-.0625-.03125-2-2.59375-.1875-.28125-.34375.09375-2.0625.5625-.3125.09375-.0625.3125-.40625 3.28125-.0312.0625.0312.0625.21875 2.1875v.0625l.0312.03125.125.375-2.15625.875-.15625-.3125-.0312-.03125-.0625-.0625-1.40625-1.71875-.0312-.03125-.0625-.03125-2.625-1.96875-.25-.21875-.28125.1875-1.84375 1.0625-.3125.15625.0625.34375.40625 3.25.0312.0625v.0625l.8125 2.0625.0312.0625.0312.03125.1875.28125-1.875 1.46875-.21875-.28125-.0312-.03125-.0625-.0625-1.8125-1.28125-.0312-.03125h-.0625l-3.0625-1.25-.28125-.125-.25.21875-1.5 1.53125-.25.25.125.28125 1.28125 3.0625.0312.03125.0312.0625 1.28125 1.8125.0312.03125.0625.03125.25.21875-1.4375 1.90625-.28125-.1875-.0312-.0625h-.0625l-2.0625-.8125h-.0625l-.0625-.03125-3.25-.375-.34375-.0625-.15625.3125-1.0625 1.84375-.15625.28125.1875.28125 2 2.59375.0312.0625.0625.03125 1.71875 1.40625.0312.03125.0625.03125.3125.15625-.875 2.15625-.34375-.125h-.0625-.0625l-2.1875-.21875-.0625-.03125-.0625.03125-3.28125.46875-.34375.03125-.0625.3125-.53125 2.09375-.0937.3125.25.1875 2.625 2 .0312.03125.0625.03125 2.03125.90625.0625.03125h.0312l.375.0625-.3125 2.34375-.34375-.03125h-.0625-.0625l-2.1875.375h-.0625l-.0312.03125-3.03125 1.28125-.3125.125v.34375 2.125.34375l.3125.125 3.03125 1.25.0625.03125h.0625l2.1875.34375.0625.03125h.0625l.34375-.03125.3125 2.3125-.3125.0625-.0625.03125-.0625.03125-2.03125.90625-.0625.03125-.0625.03125-2.59375 2.03125-.25.21875.0937.3125.5625 2.0625.0937.3125.3125.03125 3.28125.4375h.0312.0625l2.21875-.21875h.0625l.0625-.03125.3125-.125.90625 2.1875-.3125.15625-.0625.03125-.0312.03125-1.71875 1.40625-.0312.03125-.0312.0625-2 2.625-.1875.25.15625.28125 1.0625 1.84375.15625.3125.34375-.0625 3.28125-.4375h.0625l.0312-.0312 2.09375-.78125h.0625l.0312-.0625.28125-.1875 1.46875 1.875-.28125.21875-.0312.0312-.0312.0625-1.3125 1.78125-.0312.0625-.0312.0312-1.21875 3.09375-.125.28125.25.25 1.5 1.5.21875.21875.3125-.125 3.0625-1.28125h.0312l.0625-.0312 1.78125-1.3125.0625-.0312.0312-.0312.21875-.28125 1.875 1.4375-.1875.28125-.0312.0625-.0312.0625-.75 2.0625-.0312.0625v.0625l-.40625 3.28125-.0625.3125.3125.1875 1.84375 1.03125.28125.1875.28125-.21875 2.59375-2 .0312-.0312.0312-.0625 1.40625-1.71875.0625-.0312v-.0625l.15625-.3125 2.1875.875-.125.34375v.0625l-.0312.0625-.1875 2.1875v.0625.0625l.4375 3.25.0625.34375.3125.0937 2.0625.53125.3125.0937.21875-.25 2-2.625.0312-.0625.0312-.0312.90625-2.03125.0312-.0625v-.0625l.0625-.34375 2.34375.3125-.0312.34375v.0625.0625l.375 2.1875.0312.0625v.0312l1.28125 3.0625.125.3125.34375-.0312h2.125.34375l.125-.3125 1.25-3.03125.0312-.0625v-.0625l.34375-2.1875.0312-.0625-.0312-.0625-.0312-.34375 2.34375-.3125.0625.34375.0312.0625.0312.0625.90625 2 .0312.0312.0312.0625 2.03125 2.625.1875.25.3125-.0937 2.0625-.53125.34375-.0937.0312-.34375.4375-3.28125v-.0625-.0625l-.25-2.1875v-.0625l-.0312-.0625-.125-.34375 2.1875-.875.15625.3125.0312.0312.0312.0625 1.4375 1.71875.03125.0312.03125.0312 2.625 1.96875.28125.21875.28125-.15625 1.84375-1.09375.28125-.15625-.03125-.34375-.4375-3.25v-.0625l-.03125-.0625-.78125-2.0625-.03125-.0625-.03125-.0312-.1875-.3125 1.875-1.40625.21875.25.03125.0625.0625.0312 1.78125 1.28125.0625.0312h.0625l3.03125 1.25.3125.125.25-.21875 1.5-1.53125.25-.21875-.15625-.3125-1.25-3.0625-.03125-.0312-.03125-.0625-1.28125-1.78125-.0625-.0625-.03125-.0312-.28125-.21875 1.4375-1.875.28125.1875.0625.03125h.0625l2.0625.78125.03125.0312h.0625l3.28125.40625.34375.0625.15625-.3125 1.0625-1.84375.15625-.28125-.1875-.28125-2-2.59375-.03075-.06255-.0625-.03125-1.71875-1.40625-.03125-.03125-.0625-.03125-.3125-.15625.875-2.15625.34375.09375.0625.03125h.03125l2.21875.21875h.0625.03125l3.28125-.4375.34375-.03125.0625-.34375.5625-2.0625.09375-.34375-.28125-.1875-2.625-2-.03125-.0625h-.0625l-2-.90625-.0625-.03125h-.0625l-.34375-.0625.28125-2.34375.34375.03125h.0625.0625l2.1875-.375h.0625l.0625-.03125 3.03125-1.28125.3125-.125v-.34375-2.125-.34375l-.3125-.125-3.0625-1.25-.03125-.03125h-.0625l-2.1875-.34375-.0625-.03125-.0625.03125-.34375.03125-.3125-2.34375.3125-.0625.0625-.03125.0625-.03125 2.03125-.90625.0625-.03125.03125-.03125 2.59375-2.03125.25-.1875-.0625-.3125-.5625-2.0625-.09375-.34375-.34375-.03125-3.25-.4375h-.0625-.0625l-2.1875.21875h-.0625l-.0625.03125-.34375.125-.90625-2.1875.34375-.15625.03125-.03125.0625-.03125 1.6875-1.40625.03125-.03125.0625-.03125 2-2.625.1875-.28125-.15625-.28125-1.09375-1.84375-.15625-.28125-.34375.03125-3.25.4375h-.0625l-.0625.03125-2.0625.78125-.0625.03125-.03125.03125-.28125.1875-1.46875-1.875.25-.21875.0625-.03125.03125-.0625 1.28125-1.78125.03125-.0625.03125-.0625 1.25-3.03125.125-.3125-.25-.25-1.5-1.5-.125-.09375-.15625-.03125-.125-.03125-.125.0625-3.0625 1.25-.0625.03125-.0625.03125-1.78125 1.3125-.03125.03125-.03125.03125-.21875.28125-1.875-1.4375.1875-.28125.03125-.0625.03125-.0625.75-2.0625.03125-.0625v-.0625l.40625-3.25.03125-.34375-.28125-.15625-1.84375-1.0625-.28125-.1875-.28125.21875-2.59375 2.03125-.0625.03125-.03125.03125-1.40625 1.71875-.0312.03125-.0312.0625-.15625.3125-2.1875-.875.125-.3125.0312-.0625v-.0625l.21875-2.21875v-.0625-.0625l-.46875-3.25-.0312-.34375-.34375-.09375-2.0625-.53125-.3125-.0625-.1875.25-2.03125 2.59375-.0312.0625v.03125l-.90625 2.0625-.0312.03125-.0312.0625-.0625.34375-2.3125-.3125v-.34375l.0312-.0625-.0312-.0625-.375-2.1875v-.03125l-.0312-.0625-1.25-3.03125-.125-.3125h-.34375-2.15625zm1.125 14.96875c6.19777-.02284 12.40862 2.318486 17.15625 7.03125 9.495264 9.425527 9.581411 24.786358.15625 34.28125-9.42515 9.49489-24.78599 9.51927-34.28125.09375-9.49526-9.425528-9.55052-24.754737-.125-34.25 4.71277-4.747632 10.89598-7.133407 17.09375-7.15625z" filter="url(#n)"/><path d="m16.34375-47.5625-1.875 4.4375-.5 3.1875.09375 1.1875-4.78125.625-.21875-1.1875-1.34375-2.9375-2.9375-3.78125-3 .78125-.625 4.78125.3125 3.1875.40625 1.15625-4.46875 1.84375-.5-1.09375-2.0625-2.5-3.8125-2.90625-2.6875 1.5625.59375 4.75 1.15625 3.03125.6875.96875-3.84375 2.9375-.78125-.90625-2.625-1.875-4.4375-1.84375-2.1875 2.21875 1.8125 4.4375 1.875 2.625.9375.78125-2.9375 3.8125-1-.6875-3.03125-1.125-4.75-.625-1.5625 2.71875 2.90625 3.8125 2.5 2.03125 1.09375.53125-1.84375 4.4375-1.125-.40625-3.21875-.3125-4.75.65625-.8125 3 3.78125 2.9375 2.96875 1.3125 1.15625.21875-.625 4.78125-1.1875-.09375-3.1875.53125-4.4375 1.84375v3.125l4.4375 1.84375 3.1875.53125 1.1875-.09375.625 4.78125-1.15625.21875-2.96875 1.3125-3.78125 2.9375.8125 3 4.75.65625 3.21875-.3125 1.125-.40625 1.84375 4.4375-1.09375.53125-2.5 2.03125-2.90625 3.84375 1.5625 2.6875 4.75-.625 3.03125-1.125 1-.6875 2.9375 3.8125-.9375.78125-1.875 2.625-1.8125 4.4375 2.1875 2.21875 4.4375-1.84375 2.625-1.875.78125-.90625 3.84375 2.9375-.6875.96875-1.15625 3.03125-.59375 4.78125 2.6875 1.53125 3.8125-2.90625 2.0625-2.5.5-1.09375 4.46875 1.875-.40625 1.125-.3125 3.21875.625 4.75 3 .8125 2.9375-3.8125 1.34375-2.9375.21875-1.1875 4.78125.625-.09375 1.1875.5 3.1875 1.875 4.4375h3.09375l1.84375-4.4375.53125-3.1875-.09375-1.1875 4.78125-.625.21875 1.1875 1.34375 2.9375 2.9375 3.8125 3-.8125.625-4.75-.3125-3.21875-.40625-1.125 4.46875-1.875.5 1.09375 2.0625 2.5 3.8125 2.90625 2.6875-1.53125-.59375-4.78125-1.15625-3.03125-.6875-.96875 3.84375-2.9375.78125.90625 2.625 1.875 4.4375 1.84375 2.1875-2.21875-1.8125-4.4375-1.90625-2.625-.90625-.78125 2.9375-3.8125 1 .6875 3 1.125 4.78125.625 1.5625-2.6875-2.9375-3.84375-2.5-2.03125-1.0625-.53125 1.84375-4.4375 1.125.40625 3.21875.3125 4.75-.65625.8125-3-3.8125-2.9375-2.9375-1.3125-1.1875-.21875.65625-4.78125 1.1875.09375 3.1875-.53125 4.4375-1.84375v-3.125l-4.4375-1.84375-3.1875-.53125-1.1875.09375-.65625-4.78125 1.1875-.21875 2.9375-1.3125 3.8125-2.9375-.8125-3-4.75-.65625-3.21875.3125-1.125.40625-1.84375-4.4375 1.0625-.53125 2.5-2.03125 2.9375-3.8125-1.5625-2.71875-4.78125.625-3 1.125-1 .6875-2.9375-3.8125.90625-.78125 1.90625-2.625 1.8125-4.4375-2.1875-2.21875-4.4375 1.84375-2.625 1.875-.78125.90625-3.84375-2.9375.6875-.96875 1.15625-3.03125.59375-4.75-2.6875-1.5625-3.8125 2.90625-2.0625 2.5-.5 1.09375-4.46875-1.84375.40625-1.15625.3125-3.1875-.625-4.78125-3-.78125-2.9375 3.78125-1.34375 2.9375-.21875 1.1875-4.78125-.625.09375-1.1875-.53125-3.1875-1.84375-4.4375zm1.53125 20.375c19.895406 0 36.0625 16.135844 36.0625 36.03125-.000002 19.895406-16.167094 36.03125-36.0625 36.03125-19.8954065-.000001-36.03125-16.135844-36.03125-36.03125-.000001-19.895406 16.1358437-36.03125 36.03125-36.03125z" fill="url(#o)" stroke="url(#p)" stroke-width="1.457597" transform="matrix(.48690277716 .48332685844 -.48332685844 .48690277716 -38.61267474891 -3.02945095271)"/><path d="m17.875-29.21875c12.794439 0 24.064539 6.390407 30.96875 16.09375l6.53125-4.21875-2.71875-3.53125c-.648143-.846832-.524897-2.051902.28125-2.75l.75-.625 1.59375-2.21875 1.21875-3-.28125-.28125-2.9375 1.21875-2.34375 1.65625-.5625.65625c-.698098.806147-1.903168.929393-2.75.28125l-3.84375-2.9375c-11.993115-26.553895-105.44602 7.542998-25.90625-.34375zm30.96875 60.03125c-6.904211 9.703343-18.174311 16.09375-30.96875 16.09375l19.71875 3.21875c1.001456-.431143 2.164238.01182 2.625 1l.40625.875 1.75 2.15625 2.53125 1.90625.375-.21875-.40625-3.21875-.96875-2.5-.5625-.8125c-.612064-.886387-.419417-2.097314.4375-2.75l3.84375-2.9375c.846832-.648143 2.051902-.524897 2.75.28125l.5625.65625 2.34375 1.65625 2.9375 1.21875.28125-.28125-1.21875-3-1.59375-2.21875-.75-.625c-.806147-.698098-.929393-1.903168-.28125-2.75l2.71875-3.53125z" filter="url(#j)" opacity=".2" transform="matrix(.48690276 .48332687 -.48332687 .48690276 -38.612674 -3.029451)"/><path d="m59.5-9.5625-6.5625 3.25c2.020989 4.6571765 3.21875 9.7663981 3.21875 15.15625-.000001 5.389851-1.197761 10.499073-3.21875 15.15625l6.5625 3.25 1.34375-3.21875c.446258-1.090854 1.669216-1.640498 2.78125-1.25l.96875.34375 2.53125.25 3.09375-.4375.0625-.15625-2.40625-1.8125-2.5-1.15625-.9375-.15625c-1.169193-.219106-1.955971-1.323355-1.78125-2.5l.65625-4.78125c.159005-1.165761 1.202451-2.003264 2.375-1.90625l.9375.0625 2.71875-.4375 2.75-1.15625v-.1875l-2.75-1.15625-2.71875-.4375-.9375.0625c-1.172549.0970142-2.215995-.7404885-2.375-1.90625l-.65625-4.78125c-.174721-1.17664491.612057-2.2808942 1.78125-2.5l.9375-.15625 2.5-1.15625 2.40625-1.8125-.0625-.15625-3.09375-.4375-2.53125.25-.96875.34375c-1.112034.3904983-2.334992-.1591458-2.78125-1.25z" fill="#fff" filter="url(#k)" opacity=".5" transform="matrix(.48690276 .48332687 -.48332687 .48690276 -38.612674 -3.029451)"/></g><path clip-path="url(#h)" d="m17 12c-2.735406 0-5 2.264594-5 5v62c0 2.735406 2.264594 5 5 5h62c2.735406 0 5-2.264594 5-5v-62c0-2.735406-2.264594-5-5-5zm0 4h62c.588594 0 1 .411406 1 1v62c0 .588594-.411406 1-1 1h-62c-.588594 0-1-.411406-1-1v-62c0-.588594.411406-1 1-1z" filter="url(#B)"/><rect fill="#f00" height="68" rx="3" width="68" x="14" y="114"/><path d="m17 14c-1.662 0-3 1.338-3 3v62c0 1.662 1.338 3 3 3h62c1.662 0 3-1.338 3-3v-62c0-1.662-1.338-3-3-3zm0 1.78125h62c.703602 0 1.21875.515148 1.21875 1.21875v62c0 .703602-.515148 1.21875-1.21875 1.21875h-62c-.703602 0-1.21875-.515148-1.21875-1.21875v-62c0-.703602.515148-1.21875 1.21875-1.21875z" opacity=".15"/><path d="m17 14c-1.662 0-3 1.338-3 3v62c0 1.662 1.338 3 3 3h62c1.662 0 3-1.338 3-3v-62c0-1.662-1.338-3-3-3zm0 1h62c1.119848 0 2 .880152 2 2v62c0 1.119848-.880152 2-2 2h-62c-1.119848 0-2-.880152-2-2v-62c0-1.119848.880152-2 2-2z" opacity=".2"/></g><path d="m12 6c-3.324 0-6 2.676-6 6v72c0 3.324 2.676 6 6 6h72c3.324 0 6-2.676 6-6v-72c0-3.324-2.676-6-6-6zm5 7h62c2.216001 0 4 1.784 4 4v62c.000001 2.216001-1.784 4-4 4h-62c-2.215999.000001-4-1.784-4-4v-62c0-2.215999 1.784-4 4-4z" fill="url(#e)"/><path d="m12 6c-3.324 0-6 2.676-6 6v2 68 2c0 .334721.04135.6507.09375.96875.0487.295596.09704.596915.1875.875.00988.03038.020892.0636.03125.09375.098865.287771.2348802.547452.375.8125.1445918.273507.3156161.535615.5.78125s.3737765.473472.59375.6875c.439947.428056.94291.814526 1.5 1.09375.278545.139612.5734731.246947.875.34375-.2562018-.100222-.4867109-.236272-.71875-.375-.00741-.0044-.023866.0045-.03125 0-.031933-.0193-.062293-.04251-.09375-.0625-.120395-.0767-.2310226-.163513-.34375-.25-.1061728-.0808-.2132809-.161112-.3125-.25-.1779299-.161433-.3474596-.345388-.5-.53125-.1075789-.130255-.2183939-.265285-.3125-.40625-.025089-.03838-.038446-.08587-.0625-.125-.064763-.103032-.1302275-.204517-.1875-.3125-.1010083-.194706-.2056748-.415701-.28125-.625-.00796-.02181-.023589-.04055-.03125-.0625-.0318251-.09195-.0358045-.186831-.0625-.28125-.0303323-.106618-.0703894-.203031-.09375-.3125-.0728786-.341512-.125-.698205-.125-1.0625v-2-68-2c0-2.781848 2.2181517-5 5-5h2 68 2c2.781848 0 5 2.218152 5 5v2 68 2c0 .364295-.05212.720988-.125 1.0625-.04415.206893-.08838.397658-.15625.59375-.0077.02195-.0233.04069-.03125.0625-.06274.173739-.138383.367449-.21875.53125-.04158.0828-.07904.169954-.125.25-.0546.09721-.126774.18835-.1875.28125-.09411.140965-.204921.275995-.3125.40625-.143174.17445-.303141.346998-.46875.5-.01117.0102-.01998.02115-.03125.03125-.138386.125556-.285091.234436-.4375.34375-.102571.07315-.204318.153364-.3125.21875-.0074.0045-.02384-.0044-.03125 0-.232039.138728-.462548.274778-.71875.375.301527-.0968.596455-.204138.875-.34375.55709-.279224 1.060053-.665694 1.5-1.09375.219973-.214028.409366-.441865.59375-.6875s.355408-.507743.5-.78125c.14012-.265048.276135-.524729.375-.8125.01041-.03078.02133-.06274.03125-.09375.09046-.278085.1388-.579404.1875-.875.0524-.31805.09375-.634029.09375-.96875v-2-68-2c0-3.324-2.676-6-6-6z" fill="url(#d)" opacity=".5"/><path d="m17 84c-2.752703 0-5-2.247297-5-5v-62c0-2.752703 2.247298-5 5-5h62c2.752703 0 5.000001 2.247297 5 5v62c0 2.752703-2.247297 5-5 5zm0-2h62c1.679298 0 3-1.320703 3-3v-62c.000001-1.679297-1.320703-3-3-3h-62c-1.679296 0-3 1.320703-3 3v62c0 1.679297 1.320703 3 3 3z" fill="url(#c)"/><path d="m12 90c-3.324 0-6-2.676-6-6v-2-68-2c0-.334721.04135-.6507.09375-.96875.0487-.295596.09704-.596915.1875-.875.00988-.03038.020892-.0636.03125-.09375.098865-.287771.2348802-.547452.375-.8125.1445918-.273507.3156161-.535615.5-.78125s.3737765-.473472.59375-.6875c.439947-.428056.94291-.814526 1.5-1.09375.278545-.139612.5734731-.246947.875-.34375-.2562018.100222-.4867109.236272-.71875.375-.00741.0044-.023866-.0045-.03125 0-.031933.0193-.062293.04251-.09375.0625-.120395.0767-.2310226.163513-.34375.25-.1061728.0808-.2132809.161112-.3125.25-.1779299.161433-.3474596.345388-.5.53125-.1075789.130255-.2183939.265285-.3125.40625-.025089.03838-.038446.08587-.0625.125-.064763.103032-.1302275.204517-.1875.3125-.1010083.194706-.2056748.415701-.28125.625-.00796.02181-.023589.04055-.03125.0625-.0318251.09195-.0358045.186831-.0625.28125-.0303323.106618-.0703894.203031-.09375.3125-.0728786.341512-.125.698205-.125 1.0625v2 68 2c0 2.781848 2.2181517 5 5 5h2 68 2c2.781848 0 5-2.218152 5-5v-2-68-2c0-.364295-.05212-.720988-.125-1.0625-.04415-.206893-.08838-.397658-.15625-.59375-.0077-.02195-.0233-.04069-.03125-.0625-.06274-.173739-.138383-.367449-.21875-.53125-.04158-.0828-.07904-.169954-.125-.25-.0546-.09721-.126774-.18835-.1875-.28125-.09411-.140965-.204921-.275995-.3125-.40625-.143174-.17445-.303141-.346998-.46875-.5-.01117-.0102-.01998-.02115-.03125-.03125-.138386-.125556-.285091-.234436-.4375-.34375-.102571-.07315-.204318-.153364-.3125-.21875-.0074-.0045-.02384.0044-.03125 0-.232039-.138728-.462548-.274778-.71875-.375.301527.0968.596455.204138.875.34375.55709.279224 1.060053.665694 1.5 1.09375.219973.214028.409366.441865.59375.6875s.355408.507743.5.78125c.14012.265048.276135.524729.375.8125.01041.03078.02133.06274.03125.09375.09046.278085.1388.579404.1875.875.0524.31805.09375.634029.09375.96875v2 68 2c0 3.324-2.676 6-6 6z" fill="url(#b)" opacity=".2"/></svg>